<?xml version="1.0" encoding="UTF-8"?><svg id="g" xmlns="http://www.w3.org/2000/svg" viewBox="0 0 576 576"><defs><style>.i{letter-spacing:-.04em;}.j{letter-spacing:-.04em;}.k{fill:#00b6ff;}.k,.l,.m,.n,.o,.p,.q,.r{stroke-width:0px;}.l{fill:#ff0;}.s{font-family:InputSansCondensed-Regular, 'Input Sans Condensed';}.s,.t{fill:#000;font-size:14px;}.m{fill:#bcbec0;}.u{letter-spacing:0em;}.t{font-family:MyriadPro-Regular, 'Myriad Pro';}.n{fill:#ffff6e;}.o{fill:#ffeb00;}.p{fill:#00dcff;}.q{fill:#ffdf00;}.r{fill:#0084ff;}</style></defs><rect class="m" x=".52" y="-.49" width="576" height="576"/><g id="h"><text class="t" transform="translate(124.8 74.24)"><tspan x="0" y="0">11 pm</tspan></text><text class="t" transform="translate(209.66 74.24)"><tspan x="0" y="0">12 pm</tspan></text><text class="t" transform="translate(303.51 74.24)"><tspan x="0" y="0">1 am</tspan></text><text class="t" transform="translate(388.37 74.24)"><tspan x="0" y="0">2 am</tspan></text><text class="t" transform="translate(501.44 85.63)"><tspan x="0" y="0">8 am</tspan></text><text class="t" transform="translate(500.44 170.32)"><tspan x="0" y="0">9 am</tspan></text><text class="t" transform="translate(499.44 255.61)"><tspan x="0" y="0">10 am</tspan></text><text class="t" transform="translate(499.44 340.76)"><tspan x="0" y="0">11 am</tspan></text><text class="t" transform="translate(499.44 424.88)"><tspan x="0" y="0">12 pm</tspan></text><text class="t" transform="translate(76.37 511.36)"><tspan x="0" y="0">5 pm</tspan></text><text class="t" transform="translate(161.23 511.36)"><tspan x="0" y="0">4 pm</tspan></text><text class="t" transform="translate(246.09 511.36)"><tspan x="0" y="0">3 pm</tspan></text><text class="t" transform="translate(330.94 511.36)"><tspan x="0" y="0">2 pm</tspan></text><text class="t" transform="translate(415.8 511.36)"><tspan x="0" y="0">1 pm</tspan></text><text class="s" transform="translate(32.57 85.33)"><tspan x="0" y="0">10 pm</tspan></text><text class="s" transform="translate(40.57 169.62)"><tspan x="0" y="0">9 pm</tspan></text><text class="s" transform="translate(40.57 254.78)"><tspan x="0" y="0">8 pm</tspan></text><text class="s" transform="translate(40.57 339.9)"><tspan x="0" y="0">7 pm</tspan></text><text class="t" transform="translate(42.52 424.05)"><tspan x="0" y="0">6 pm</tspan></text></g><path class="m" d="M330.94,329.94c-29.67-25.92-55.05-26.04-84.86,0,26.04-29.81,25.92-55.19,0-84.86,29.81,26.04,55.19,25.92,84.86,0-25.92,29.67-26.04,55.05,0,84.86Z"/><circle class="q" cx="118.8" cy="287.76" r="42.43"/><circle class="o" cx="203.66" cy="287.76" r="42.43"/><circle class="l" cx="288.52" cy="287.76" r="42.43"/><circle class="n" cx="373.37" cy="287.76" r="42.43"/><circle class="r" cx="373.37" cy="373.12" r="42.43"/><circle class="k" cx="288.52" cy="373.12" r="42.43"/><circle class="p" cx="203.14" cy="373.12" r="42.43"/><text class="s" transform="translate(167.68 373.12)"><tspan x="0" y="0">Cafen</tspan><tspan class="i" x="40.18" y="0">a</tspan><tspan class="u" x="48.52" y="0">ted</tspan><tspan x="18.1" y="16.8">drink</tspan></text><text class="s" transform="translate(264.52 373.12)"><tspan x="0" y="0">Sugary</tspan><tspan x="6.63" y="16.8">drink</tspan></text><text class="s" transform="translate(353.49 373.12)"><tspan x="0" y="0">W</tspan><tspan class="i" x="10.08" y="0">a</tspan><tspan class="u" x="18.42" y="0">ter</tspan></text><text class="s" transform="translate(177.28 293.06)"><tspan x="0" y="0">Pee Darkness sc</tspan><tspan class="j" x="114.71" y="0">a</tspan><tspan x="123.05" y="0">le</tspan></text></svg>