<?xml version="1.0" encoding="UTF-8"?><svg id="a" xmlns="http://www.w3.org/2000/svg" viewBox="0 0 576 576"><defs><style>.h{fill:#00b6ff;}.h,.i,.j,.k,.l,.m,.n,.o,.p{stroke-width:0px;}.i{fill:#ff0;}.j{fill:#58595b;}.k{fill:#bcbec0;}.l{fill:#ffff6e;}.m{fill:#ffeb00;}.n{fill:#00dcff;}.o{fill:#ffdf00;}.p{fill:#0084ff;}</style></defs><rect class="k" width="576" height="576"/><path class="j" d="M576,576c-77.87-76.33-174.64-144-288-144-113.36,0-210.13,67.68-288,144,76.32-77.87,144-174.64,144-288,0-113.36-67.67-210.13-144-288,77.87,76.32,174.64,144,288,144,113.36,0,210.13-67.67,288-144-76.33,77.87-144,174.64-144,288,0,113.36,67.68,210.13,144,288Z"/><circle class="o" cx="500.14" cy="101.14" r="14.4"/><circle class="p" cx="500.14" cy="136.84" r="11.52"/><circle class="h" cx="500.14" cy="186.14" r="14.4"/><circle class="n" cx="500.14" cy="209.18" r="23.04"/><circle class="p" cx="500.14" cy="288.85" r="43.2"/><circle class="m" cx="500.14" cy="332.05" r="21.6"/><circle class="i" cx="500.14" cy="375.25" r="23.4"/><circle class="l" cx="500.14" cy="415.36" r="27"/><circle class="h" cx="500.14" cy="500.14" r="23.04"/><circle class="p" cx="415.43" cy="500.14" r="46.08"/><circle class="l" cx="401.03" cy="500.14" r="14.4"/><circle class="l" cx="330.57" cy="500.14" r="39.6"/><circle class="l" cx="251.37" cy="500.14" r="27"/><circle class="h" cx="244.71" cy="500.14" r="25.92"/><circle class="i" cx="133.17" cy="500.14" r="36"/><circle class="m" cx="75.86" cy="415.29" r="18"/><circle class="h" cx="75.86" cy="375.72" r="8.64"/><circle class="p" cx="75.86" cy="329.98" r="20.16"/><circle class="p" cx="75.86" cy="245.12" r="21.6"/><circle class="p" cx="75.86" cy="97.01" r="28.8"/><circle class="i" cx="75.86" cy="83.13" r="14.4"/><circle class="i" cx="160.71" cy="75.86" r="19.8"/><circle class="m" cx="222.64" cy="75.86" r="12.6"/><path class="k" d="M330.43,330.43c-29.67-25.92-55.05-26.04-84.86,0,26.04-29.81,25.92-55.19,0-84.86,29.81,26.04,55.19,25.92,84.86,0-25.92,29.67-26.04,55.05,0,84.86Z"/></svg>