<?xml version="1.0" encoding="UTF-8"?><svg id="e" xmlns="http://www.w3.org/2000/svg" viewBox="0 0 576 576"><defs><style>.h{fill:#00b6ff;}.h,.i,.j,.k,.l,.m,.n,.o,.p{stroke-width:0px;}.i{fill:#ff0;}.j{fill:#58595b;}.k{fill:#bcbec0;}.l{fill:#ffff6e;}.m{fill:#ffeb00;}.n{fill:#00dcff;}.o{fill:#ffdf00;}.p{fill:#0084ff;}</style></defs><rect class="k" x=".01" y="0" width="576" height="576"/><path class="j" d="M576.01,576.01c-77.87-76.33-174.64-144-288-144-113.36,0-210.13,67.68-288,144,76.32-77.87,144-174.64,144-288C144.01,174.65,76.34,77.88.01,0c77.87,76.32,174.64,144,288,144S498.14,76.34,576.01,0c-76.33,77.87-144,174.64-144,288,0,113.36,67.68,210.13,144,288Z"/><path class="k" d="M330.44,330.44c-29.67-25.92-55.05-26.04-84.86,0,26.04-29.81,25.92-55.19,0-84.86,29.81,26.04,55.19,25.92,84.86,0-25.92,29.67-26.04,55.05,0,84.86Z"/><circle class="o" cx="500.16" cy="245.58" r="19.8"/><circle class="p" cx="500.16" cy="288" r="17.28"/><circle class="h" cx="500.16" cy="330.44" r="25.92"/><circle class="m" cx="500.16" cy="369.21" r="18"/><circle class="p" cx="500.16" cy="415.29" r="46.08"/><circle class="l" cx="500.16" cy="415.29" r="16.2"/><circle class="l" cx="415.3" cy="500.15" r="16.2"/><circle class="l" cx="330.44" cy="500.15" r="30.6"/><circle class="l" cx="231.79" cy="500.15" r="10.8"/><circle class="p" cx="188.73" cy="499.77" r="40.32"/><circle class="n" cx="182.32" cy="500.15" r="17.28"/><circle class="l" cx="75.87" cy="500.15" r="23.4"/><circle class="h" cx="75.03" cy="464.87" r="25.92"/><circle class="l" cx="75.87" cy="330.44" r="30.6"/><circle class="p" cx="75.87" cy="245.58" r="25.92"/><circle class="l" cx="75.87" cy="159.54" r="19.8"/><circle class="i" cx="75.87" cy="75.87" r="16.2"/><circle class="p" cx="245.59" cy="75.87" r="17.28"/><circle class="l" cx="245.59" cy="75.87" r="14.4"/></svg>