<?xml version="1.0" encoding="UTF-8"?><svg id="c" xmlns="http://www.w3.org/2000/svg" viewBox="0 0 576 576"><defs><style>.h{fill:#00b6ff;}.h,.i,.j,.k,.l,.m,.n,.o{stroke-width:0px;}.i{fill:#ff0;}.j{fill:#58595b;}.k{fill:#bcbec0;}.l{fill:#ffff6e;}.m{fill:#ffeb00;}.n{fill:#ffdf00;}.o{fill:#0084ff;}</style></defs><rect class="k" x="0" y="0" width="576" height="576"/><path class="j" d="M576,576c-77.87-76.33-174.64-144-288-144-113.36,0-210.13,67.68-288,144,76.32-77.87,144-174.64,144-288S76.32,77.87,0,0c77.87,76.32,174.64,144,288,144,113.36,0,210.13-67.67,288-144-76.33,77.87-144,174.64-144,288,0,113.36,67.68,210.13,144,288Z"/><path class="k" d="M330.43,330.43c-29.67-25.92-55.05-26.04-84.86,0,26.04-29.81,25.92-55.19,0-84.86,29.81,26.04,55.19,25.92,84.86,0-25.92,29.67-26.04,55.05,0,84.86Z"/><circle class="n" cx="500.14" cy="85.72" r="21.6"/><circle class="o" cx="500.14" cy="330.43" r="17.28"/><circle class="m" cx="500.14" cy="341.3" r="16.2"/><circle class="o" cx="500.14" cy="500.14" r="25.92"/><circle class="i" cx="371.08" cy="500.14" r="14.4"/><circle class="o" cx="160.71" cy="500.18" r="23.04"/><circle class="i" cx="116.4" cy="500.14" r="18"/><circle class="l" cx="75.86" cy="475.73" r="25.2"/><circle class="l" cx="75.86" cy="442.8" r="19.8"/><circle class="o" cx="75.86" cy="373.14" r="46.08"/><circle class="i" cx="75.86" cy="306.47" r="23.4"/><circle class="o" cx="75.86" cy="260.38" r="46.08"/><circle class="i" cx="75.86" cy="225.57" r="23.4"/><circle class="i" cx="75.86" cy="116.91" r="25.2"/><circle class="h" cx="75.86" cy="75.86" r="46.08"/><circle class="m" cx="75.86" cy="75.86" r="18"/><circle class="i" cx="131.51" cy="75.86" r="16.2"/><circle class="o" cx="160.71" cy="75.86" r="23.04"/><circle class="m" cx="160.71" cy="75.86" r="12.6"/><circle class="i" cx="330.43" cy="75.86" r="25.2"/></svg>