<?xml version="1.0" encoding="UTF-8"?><svg id="f" xmlns="http://www.w3.org/2000/svg" viewBox="0 0 576 576"><defs><style>.h{fill:#00b6ff;}.h,.i,.j,.k,.l,.m,.n,.o{stroke-width:0px;}.i{fill:#ff0;}.j{fill:#58595b;}.k{fill:#bcbec0;}.l{fill:#ffff6e;}.m{fill:#ffeb00;}.n{fill:#00dcff;}.o{fill:#0084ff;}</style></defs><rect class="k" x=".01" y="0" width="576" height="576"/><path class="j" d="M576.01,576.01c-77.87-76.33-174.64-144-288-144-113.36,0-210.13,67.68-288,144,76.32-77.87,144-174.64,144-288C144.01,174.65,76.34,77.88.01,0c77.87,76.32,174.64,144,288,144S498.14,76.34,576.01,0c-76.33,77.87-144,174.64-144,288,0,113.36,67.68,210.13,144,288Z"/><path class="k" d="M330.44,330.44c-29.67-25.92-55.05-26.04-84.86,0,26.04-29.81,25.92-55.19,0-84.86,29.81,26.04,55.19,25.92,84.86,0-25.92,29.67-26.04,55.05,0,84.86Z"/><circle class="l" cx="330.44" cy="75.87" r="16.2"/><circle class="m" cx="500.16" cy="95.33" r="28.8"/><circle class="o" cx="500.16" cy="159.67" r="28.8"/><circle class="o" cx="500.16" cy="204.67" r="23.04"/><circle class="i" cx="500.16" cy="330.44" r="34.2"/><circle class="h" cx="500.16" cy="415.29" r="23.04"/><circle class="l" cx="500.16" cy="415.29" r="16.2"/><circle class="o" cx="500.16" cy="500.15" r="23.04"/><circle class="l" cx="415.3" cy="500.15" r="10.8"/><circle class="l" cx="263.91" cy="500.15" r="36"/><circle class="o" cx="217.83" cy="500.15" r="46.08"/><circle class="l" cx="160.73" cy="499.32" r="27"/><circle class="l" cx="75.87" cy="499.32" r="16.2"/><circle class="n" cx="75.87" cy="371.27" r="36"/><circle class="o" cx="75.87" cy="330.44" r="25.92"/><circle class="m" cx="75.87" cy="330.44" r="14.4"/><circle class="h" cx="75.87" cy="245.58" r="32.4"/><circle class="l" cx="75.87" cy="160.72" r="16.2"/><circle class="o" cx="75.87" cy="114.64" r="46.08"/><circle class="l" cx="75.87" cy="111.05" r="14.4"/><circle class="l" cx="113.47" cy="75.87" r="28.8"/><circle class="l" cx="160.73" cy="75.87" r="19.8"/></svg>